<svg xmlns="http://www.w3.org/2000/svg" width="193.067" height="53.333"><rect width="52.704" height="52.189" x="2.896" y="1.043" ry="11.485" style="fill:#e14f45;fill-opacity:1;stroke:none;stroke-width:1.06087"/><path d="M28.94 5.045c2.956.187 1.028 6.853 2.06 8.01l2.987 3.344c1.284 1.438-3.323 1.42-4.636 1.42-1.313 0-5.676-.868-4.327-2.244l2.472-2.52c1.35-1.376-.9-8.159 1.443-8.01Z" style="fill:#e14f45;stroke:#fff;stroke-width:1.20248"/><path d="M29.248 2.322a3.547 3.873 0 0 0-3.342 2.574c-1.765-.631-4.526-.982-5.771-.982-1.906 0-3.451 1.13-3.451 2.524 0 1.393 1.545 2.521 3.45 2.521 1.248 0 4.018-.617 5.782-1.434a3.547 3.873 0 0 0 3.332 2.543 3.547 3.873 0 0 0 3.361-2.632c1.766.81 4.513 1.421 5.754 1.421 1.906 0 3.45-1.13 3.45-2.523 0-1.394-1.544-2.523-3.45-2.523-1.252 0-4.041.355-5.804.994a3.547 3.873 0 0 0-3.311-2.483Z" style="fill:#e14f45;stroke:#fff"/><rect width="16.664" height="4.615" x="20.916" y="15.973" ry="2.307" style="fill:#e14f45;fill-opacity:1;stroke:#fff;stroke-width:1.01957"/><text xml:space="preserve" x="24.395" y="42.869" style="font-size:29.0689px;line-height:1.25;font-family:sans-serif;letter-spacing:0;word-spacing:0;stroke-width:.726722"><tspan x="24.395" y="42.869" style="font-style:normal;font-variant:normal;font-weight:400;font-stretch:normal;font-family:&quot;Bell MT&quot;;-inkscape-font-specification:&quot;Bell MT&quot;;fill:#fff;stroke-width:.726722">#</tspan></text><path d="M21.318 22.657s-1.578 2.432-2.78 1.957c-2.587-1.023-5.836-.9-8.342.309-1.996.963-3.456 3.009-4.326 5.046-1.097 2.57-1.25 5.352-.824 8.342.174 1.22.53 3.841 1.648 3.81 2.503-.068 5.89 1.044 7.827-.72.826-.753.373-2.206.618-3.296.148-.658.01-1.51.515-1.957 1.712-1.515 6.797-.927 6.797-.927" style="fill:none;stroke:#fff;stroke-width:1px;stroke-linecap:butt;stroke-linejoin:miter;stroke-opacity:1"/><text xml:space="preserve" x="24.423" y="54.881" style="font-style:normal;font-variant:normal;font-weight:400;font-stretch:normal;font-size:65.3842px;line-height:1.25;font-family:&quot;Bell MT&quot;;-inkscape-font-specification:&quot;Bell MT&quot;;letter-spacing:0;word-spacing:0;fill:#fff;fill-opacity:1;stroke:#e14f45;stroke-width:3.14457;stroke-dasharray:none;stroke-opacity:1;paint-order:stroke fill markers" transform="scale(1.13896 .878)"><tspan x="24.423" y="54.881" style="stroke:#e14f45;stroke-width:3.14457;stroke-dasharray:none;stroke-opacity:1;paint-order:stroke fill markers">1</tspan></text><text xml:space="preserve" x="58.645" y="26.332" style="font-style:normal;font-variant:normal;font-weight:700;font-stretch:normal;font-size:35.4002px;line-height:1.25;font-family:Arial;-inkscape-font-specification:&quot;Arial Bold&quot;;letter-spacing:0;word-spacing:0;fill:#e14f44;fill-opacity:.964706;stroke-width:.885004"><tspan x="58.645" y="26.332" style="font-style:normal;font-variant:normal;font-weight:400;font-stretch:normal;font-size:23.6001px;font-family:Arial;-inkscape-font-specification:Arial;stroke-width:.885004">First Time</tspan></text><text xml:space="preserve" x="61.536" y="46.326" style="font-style:normal;font-variant:normal;font-weight:700;font-stretch:normal;font-size:31.5131px;line-height:1.25;font-family:Arial;-inkscape-font-specification:&quot;Arial Bold&quot;;letter-spacing:0;word-spacing:0;fill:#e14f44;fill-opacity:.964706;stroke-width:.787828" transform="scale(.99164 1.00843)"><tspan x="61.536" y="46.326" style="font-style:normal;font-variant:normal;font-weight:400;font-stretch:normal;font-size:21.0088px;font-family:Arial;-inkscape-font-specification:Arial;stroke-width:.787828">Plumbing Co.</tspan></text></svg>