<?xml version="1.0" encoding="UTF-8" standalone="no"?>
<svg
   data-name="Layer 1"
   width="793.19946"
   height="653.80585"
   viewBox="0 0 793.19945 653.80585"
   version="1.1"
   id="svg18"
   sodipodi:docname="not-found.svg"
   inkscape:version="1.4.3 (0d15f75, 2025-12-25)"
   xmlns:inkscape="http://www.inkscape.org/namespaces/inkscape"
   xmlns:sodipodi="http://sodipodi.sourceforge.net/DTD/sodipodi-0.dtd"
   xmlns="http://www.w3.org/2000/svg"
   xmlns:svg="http://www.w3.org/2000/svg">
  <defs
     id="defs18" />
  <sodipodi:namedview
     id="namedview18"
     pagecolor="#ffffff"
     bordercolor="#666666"
     borderopacity="1.0"
     inkscape:showpageshadow="2"
     inkscape:pageopacity="0.0"
     inkscape:pagecheckerboard="0"
     inkscape:deskcolor="#d1d1d1"
     inkscape:zoom="1.0476712"
     inkscape:cx="873.36563"
     inkscape:cy="388.95792"
     inkscape:window-width="1920"
     inkscape:window-height="1017"
     inkscape:window-x="-8"
     inkscape:window-y="-8"
     inkscape:window-maximized="1"
     inkscape:current-layer="svg18">
    <inkscape:page
       x="0"
       y="0"
       width="793.19946"
       height="653.80585"
       id="page2"
       margin="0"
       bleed="0" />
  </sodipodi:namedview>
  <title
     id="title1">not found</title>
  <path
     d="m 793.1994,280.86159 c 0,123.61 -73.4842,166.77 -164.13153,166.77 -90.64736,0 -164.13156,-43.16 -164.13156,-166.77 0,-123.61 164.13156,-280.861490072751 164.13156,-280.861490072751 0,0 164.13153,157.251460072751 164.13153,280.861490072751 z"
     fill="#f2f2f2"
     id="path2" />
  <polygon
     points="953.382,374.329 953.382,374.329 954.741,290.669 1006.369,216.952 954.954,277.514 955.804,124.11 950.467,327.188 950.906,318.811 898.414,238.464 950.064,334.893 945.173,428.327 945.027,425.847 884.514,341.294 944.844,434.608 944.232,446.293 944.123,446.469 944.173,447.428 931.764,684.478 948.343,684.478 950.332,562.037 1010.514,468.952 950.482,552.833 952.162,449.383 1022.119,321.4 952.426,433.154 953.182,386.639 1001.396,294.044 "
     fill="#3f3d56"
     id="polygon2"
     style="fill:#320b08;fill-opacity:1"
     transform="translate(-327.39283,-124.11)" />
  <ellipse
     cx="390.89587"
     cy="556.36902"
     rx="390.89587"
     ry="28.03433"
     fill="#3f3d56"
     id="ellipse2"
     style="fill:#320b08;fill-opacity:1;stroke-width:0.839544" />
  <ellipse
     cx="565.05206"
     cy="602.68665"
     rx="94.988579"
     ry="4.80162"
     fill="#3f3d56"
     id="ellipse3"
     style="fill:#320b08;fill-opacity:1" />
  <ellipse
     cx="221.32678"
     cy="649.00421"
     rx="94.988579"
     ry="4.80162"
     fill="#3f3d56"
     id="ellipse4"
     style="fill:#320b08;fill-opacity:1" />
  <circle
     cx="385.09222"
     cy="441.30536"
     r="79"
     fill="#2f2e41"
     id="circle10"
     style="fill:#320b08;fill-opacity:1" />
  <rect
     x="202.46146"
     y="596.96033"
     width="24"
     height="43"
     transform="rotate(-17.08345)"
     fill="#2f2e41"
     id="rect10" />
  <rect
     x="250.46167"
     y="596.96332"
     width="24.000019"
     height="43.000034"
     transform="rotate(-17.083183)"
     fill="#2f2e41"
     id="rect11" />
  <ellipse
     cx="222.46147"
     cy="640.46033"
     rx="20"
     ry="7.5"
     transform="rotate(-17.08345)"
     fill="#2f2e41"
     id="ellipse11" />
  <ellipse
     cx="270.46143"
     cy="639.46027"
     rx="20"
     ry="7.5"
     transform="rotate(-17.08345)"
     fill="#2f2e41"
     id="ellipse12" />
  <circle
     cx="381.12872"
     cy="421.60022"
     r="27"
     fill="#ffffff"
     id="circle12" />
  <circle
     cx="381.12872"
     cy="421.60022"
     r="9"
     fill="#3f3d56"
     id="circle13"
     style="fill:#320b08;fill-opacity:1" />
  <path
     d="m 290.25856,393.59108 c -14.48957,-25.43323 -3.47841,-59.016 24.59412,-75.0092 28.07253,-15.9932 62.57592,-8.34055 77.06549,17.09268 14.48957,25.43323 -2.39072,41.6435 -30.46325,57.63671 -28.07253,15.99321 -56.70679,25.71304 -71.19636,0.27981 z"
     fill="#3b82f6"
     id="path13"
     style="fill:#e14f45;fill-opacity:1" />
  <path
     d="m 244.19943,476.14667 c 0,50.55711 -30.05368,68.20979 -67.13,68.20979 q -1.28835,0 -2.57261,-0.0286 c -1.71785,-0.0368 -3.41933,-0.1186 -5.10033,-0.23313 -33.46068,-2.36813 -59.45707,-20.92878 -59.45707,-67.948 0,-48.65932 62.18106,-110.05916 66.85186,-114.60322 l 0.008,-0.008 c 0.18,-0.17587 0.27,-0.26177 0.27,-0.26177 0,0 67.12996,64.31603 67.12996,114.87314 z"
     fill="#3b82f6"
     id="path14"
     style="fill:#e14f45;fill-opacity:1" />
  <path
     d="m 174.62359,536.62216 24.55253,-34.30732 -24.6139,38.07426 -0.0654,3.93872 c -1.71785,-0.0368 -3.41933,-0.1186 -5.10033,-0.23313 l 2.6463,-50.58165 -0.0205,-0.39266 0.045,-0.0736 0.24949,-4.77718 -24.67531,-38.16836 24.753,34.58547 0.0573,1.01433 2,-38.21741 -21.12507,-39.44039 21.38272,32.73269 2.08182,-79.23247 0.008,-0.26994 v 0.26177 l -0.34764,62.47962 21.031,-24.76934 -21.11693,30.15184 -0.55624,34.21735 19.63634,-32.839 -19.71812,37.87389 -0.31085,19.0228 28.50763,-45.70631 -28.614,52.34448 z"
     fill="#3f3d56"
     id="path15"
     style="fill:#320b08;fill-opacity:1" />
  <path
     d="m 508.19943,497.23203 c 0,55.07585 -32.73985,74.3063 -73.13,74.3063 q -1.4035,0 -2.80255,-0.0312 c -1.87139,-0.0401 -3.72494,-0.1292 -5.55619,-0.254 -36.45135,-2.57979 -64.77127,-22.79937 -64.77127,-74.02113 0,-53.00843 67.73872,-119.89612 72.827,-124.84633 l 0.009,-0.009 c 0.19608,-0.19159 0.29409,-0.28516 0.29409,-0.28516 0,0 73.13,70.06457 73.13,125.14041 z"
     fill="#3b82f6"
     id="path16"
     style="fill:#e14f45;fill-opacity:1" />
  <path
     d="m 432.40498,563.11274 26.747,-37.37367 -26.81386,41.4773 -0.0712,4.29076 c -1.87139,-0.0401 -3.72494,-0.1292 -5.55619,-0.254 l 2.88282,-55.10258 -0.0223,-0.42775 0.049,-0.0802 0.27179,-5.20415 -26.88069,-41.57977 26.96539,37.67668 0.0624,1.105 2.17874,-41.63324 -23.0132,-42.96551 23.29391,35.6583 2.26789,-86.31419 0.009,-0.294 v 0.28516 l -0.37871,68.064 22.91079,-26.98321 -23.00435,32.84678 -0.606,37.27566 21.39141,-35.77419 -21.4805,41.259 -0.33863,20.723 31.05561,-49.79149 -31.17146,57.023 z"
     fill="#3f3d56"
     id="path17"
     style="fill:#320b08;fill-opacity:1" />
  <ellipse
     cx="-274.28757"
     cy="522.35303"
     rx="12.40027"
     ry="39.5"
     transform="rotate(-64.62574)"
     fill="#2f2e41"
     id="ellipse17"
     style="fill:#320b08;fill-opacity:1" />
</svg>
